<svg id="Group_9971" data-name="Group 9971" xmlns="http://www.w3.org/2000/svg" xmlns:xlink="http://www.w3.org/1999/xlink" width="770.835" height="188.715" viewBox="0 0 770.835 188.715">
  <defs>
    <clipPath id="clip-path">
      <rect id="Rectangle_318" data-name="Rectangle 318" width="770.835" height="188.715" fill="#fff"/>
    </clipPath>
  </defs>
  <g id="Group_9874" data-name="Group 9874" clip-path="url(#clip-path)">
    <path id="Path_1955" data-name="Path 1955" d="M466.959,78.014,434.917,8.23l-3.174-6.667c-6.234,8.641.64,9.969-2.242,16.236L404.55,72h49.4c5.905,0,4.483,6.013,13.013,6.013M429.516,0h10.352l49.925,106.552H480.51L468.028,79.61l-66.819-.341-12.64,27.284h-8.98Z" transform="translate(281.042 0.001)" fill="#fff"/>
    <path id="Path_1956" data-name="Path 1956" d="M74.841,0h8.524V82.937c0,11.266-6.869,7.217-6.869,16l73.845.005v7.609h-75.5Z" transform="translate(55.411 0.001)" fill="#fff"/>
    <path id="Path_1957" data-name="Path 1957" d="M168.806,7.612h50.283V0H124.1V7.612h43.229v98.943h8.526V26.883c0-9.515-7.054-10.171-7.054-19.271" transform="translate(91.885 0.001)" fill="#fff"/>
    <rect id="Rectangle_316" data-name="Rectangle 316" width="8.526" height="106.553" transform="translate(351.684)" fill="#fff"/>
    <path id="Path_1958" data-name="Path 1958" d="M236.224,0h83.112V7.612s-81.622-.379-81.622,0c0,7.625,7.035,7.625,7.035,14.842v25.1s6.913.089,14.13.089h60.458v7.612H237.714c0,6.243,7.035,8.211,7.035,15.43V98.9c5.708,0,3.848.04,10.957.04h64.7v7.609H236.224Z" transform="translate(174.897 0.001)" fill="#fff"/>
    <path id="Path_1959" data-name="Path 1959" d="M367.516,7.61q13.243,0,20.853,5.555t7.612,15.909q0,10.354-7.764,16.135t-20.7,5.783h-47.8V24.42c0-9.844-6.321-8.093-6.321-16.81Zm39.274,98.943L335.764,57.841h32.817a46.746,46.746,0,0,0,18.951-3.576,28.514,28.514,0,0,0,12.559-10.122A26.582,26.582,0,0,0,404.5,28.921q0-13.089-9.513-21.006T368.581,0H311.2V106.553h8.524V70.687c0-7.437-6.648-9.626-6.648-14.985,0-.3,6.648.167,6.648-.132L393.7,106.553Z" transform="translate(230.405 0.001)" fill="#fff"/>
    <path id="Path_1960" data-name="Path 1960" d="M0,0H83.112V7.612S1.49,7.232,1.49,7.612c0,7.625,7.035,7.625,7.035,14.842v25.1s6.913.089,14.13.089H83.112v7.612H1.49c0,6.243,7.035,8.211,7.035,15.43V98.9c5.708,0,3.848.04,10.957.04h64.7v7.609H0Z" transform="translate(0 0.001)" fill="#fff"/>
    <path id="Path_1961" data-name="Path 1961" d="M133.516,122.836,121.022,88.378h5.5l5.9,16.955c1.737,5.009,3.373,9.918,4.166,13.14h.1c.7-2.924,2.529-8.032,4.314-12.99l6.149-17.1h5.254l-12.891,34.458Z" transform="translate(89.603 65.434)" fill="#fff"/>
    <rect id="Rectangle_317" data-name="Rectangle 317" width="5.108" height="34.458" transform="translate(296.583 153.81)" fill="#fff"/>
    <path id="Path_1962" data-name="Path 1962" d="M229.112,106.97H212.106v11.553H230.8l-.644,4.313H207.1V88.378h22.806v4.363h-17.8v9.915h17.005Z" transform="translate(153.334 65.434)" fill="#fff"/>
    <path id="Path_1963" data-name="Path 1963" d="M260.306,122.836l-9.174-34.458h5.454c2.776,12.148,6.05,25.037,6.645,28.955h.049c.99-4.81,5.454-20.229,7.635-28.955h4.908c1.984,7.487,6.446,24.195,7.289,28.756h.05c1.14-6.3,5.651-21.964,7.437-28.756h5.007l-9.915,34.458h-5.406c-2.031-7.882-6.2-23.253-7.139-27.716H273.1c-1.042,5.3-5.256,19.981-7.39,27.716Z" transform="translate(185.935 65.434)" fill="#fff"/>
    <path id="Path_1964" data-name="Path 1964" d="M312.06,113.377c.942,3.966,3.667,6.1,8.477,6.1,5.108,0,7.141-2.33,7.141-5.454,0-3.322-1.686-5.157-8.38-6.744-8.378-2.033-11.057-4.908-11.057-9.717,0-5.306,3.867-9.469,11.652-9.469,8.378,0,11.8,4.807,12.294,9.419h-5.205c-.545-2.875-2.33-5.353-7.238-5.353-3.966,0-6.248,1.735-6.248,4.859,0,3.072,1.885,4.313,7.785,5.75,9.868,2.379,11.7,6.2,11.7,10.66,0,5.7-4.213,10.065-12.79,10.065-8.676,0-12.545-4.661-13.288-10.115Z" transform="translate(227.227 65.223)" fill="#fff"/>
  </g>
</svg>
