<svg id="Group_9904" data-name="Group 9904" xmlns="http://www.w3.org/2000/svg" xmlns:xlink="http://www.w3.org/1999/xlink" width="442.91" height="108.433" viewBox="0 0 442.91 108.433">
  <defs>
    <clipPath id="clip-path">
      <rect id="Rectangle_506" data-name="Rectangle 506" width="442.91" height="108.433" fill="#fff"/>
    </clipPath>
  </defs>
  <path id="Path_1531" data-name="Path 1531" d="M90.16,88.307v8.307H79.826V88.307H77.2v19.869h2.626V98.869H90.16v9.307h2.655V88.307Z" fill="#fff"/>
  <path id="Path_1532" data-name="Path 1532" d="M126.75,88.307v19.869h13.075l.343-2.255H129.32V98.9H139.2V96.643H129.32V90.562h10.362V88.307Z" fill="#fff"/>
  <rect id="Rectangle_504" data-name="Rectangle 504" width="2.626" height="19.868" transform="translate(172.333 88.308)" fill="#fff"/>
  <g id="Group_9903" data-name="Group 9903">
    <g id="Group_9902" data-name="Group 9902" clip-path="url(#clip-path)">
      <path id="Path_1533" data-name="Path 1533" d="M224.853,108.176h-2.027a10.406,10.406,0,0,1-.257-2.683c-.856,1.4-2.569,2.94-6.166,2.94-5.738,0-8.764-4.339-8.764-9.992,0-5.937,3.254-10.419,9.249-10.419,4.625,0,7.508,2.512,8.079,6.052h-2.626c-.685-2.227-2.255-3.854-5.51-3.854-4.6,0-6.423,3.682-6.423,8.107,0,4.082,1.827,7.908,6.309,7.908,4.453,0,5.567-2.969,5.567-6.309V99.7h-5.6V97.442h8.164Z" fill="#fff"/>
      <path id="Path_1534" data-name="Path 1534" d="M258.217,88.307h2.626v8.307h10.334V88.307h2.655v19.869h-2.655V98.869H260.843v9.307h-2.626Z" fill="#fff"/>
      <path id="Path_1535" data-name="Path 1535" d="M311.792,90.562H305.4V88.307H320.87v2.255h-6.423v17.614h-2.655Z" fill="#fff"/>
      <path id="Path_1536" data-name="Path 1536" d="M353.606,102.638c.542,2.4,2.17,3.683,5.053,3.683,3.083,0,4.31-1.456,4.31-3.34,0-2-.97-3.112-4.938-4.054-4.682-1.142-6.309-2.741-6.309-5.538,0-2.969,2.169-5.367,6.594-5.367,4.739,0,6.68,2.74,6.966,5.338H362.6c-.371-1.741-1.456-3.2-4.367-3.2-2.427,0-3.769,1.085-3.769,2.969,0,1.855,1.114,2.6,4.6,3.454,5.653,1.37,6.652,3.568,6.652,6.138,0,3.2-2.369,5.709-7.222,5.709-5,0-7.137-2.74-7.565-5.795Z" fill="#fff"/>
      <path id="Path_1537" data-name="Path 1537" d="M429.79,44.825l-18.411-40.1L409.555.9c-3.582,4.965.368,5.728-1.288,9.329L393.931,41.37h28.382c3.393,0,2.576,3.455,7.477,3.455M408.276,0h5.948L442.91,61.223h-5.334L430.4,45.742l-38.393-.2-7.263,15.677h-5.16Z" fill="#fff"/>
      <path id="Path_1538" data-name="Path 1538" d="M74.841,0h4.9V47.654c0,6.473-3.947,4.147-3.947,9.194l42.43,0v4.372H74.841Z" fill="#fff"/>
      <path id="Path_1539" data-name="Path 1539" d="M149.789,4.373h28.892V0H124.1V4.373h24.839V61.224h4.9V15.446c0-5.467-4.053-5.844-4.053-11.073" fill="#fff"/>
      <rect id="Rectangle_505" data-name="Rectangle 505" width="4.899" height="61.224" transform="translate(202.072)" fill="#fff"/>
      <path id="Path_1540" data-name="Path 1540" d="M236.224,0h47.755V4.373s-46.9-.218-46.9,0c0,4.381,4.042,4.381,4.042,8.528V27.324s3.972.051,8.119.051h34.738v4.374h-46.9c0,3.587,4.042,4.718,4.042,8.866V56.828c3.28,0,2.211.023,6.3.023h37.173v4.372H236.224Z" fill="#fff"/>
      <path id="Path_1541" data-name="Path 1541" d="M343.556,4.373q7.609,0,11.982,3.192a10.637,10.637,0,0,1,4.374,9.141,10.9,10.9,0,0,1-4.461,9.271Q350.992,29.3,343.556,29.3H316.093V14.032c0-5.656-3.632-4.65-3.632-9.659Zm22.566,56.851-40.81-27.989h18.856a26.859,26.859,0,0,0,10.889-2.055,16.383,16.383,0,0,0,7.216-5.816,15.273,15.273,0,0,0,2.536-8.746,14.922,14.922,0,0,0-5.466-12.07Q353.876,0,344.168,0H311.2V61.224h4.9V40.616c0-4.273-3.82-5.531-3.82-8.61,0-.173,3.82.1,3.82-.076L358.6,61.224Z" fill="#fff"/>
      <path id="Path_1542" data-name="Path 1542" d="M0,0H47.755V4.373s-46.9-.218-46.9,0C.856,8.754,4.9,8.754,4.9,12.9V27.324s3.972.051,8.119.051H47.755v4.374H.856c0,3.587,4.042,4.718,4.042,8.866V56.828c3.28,0,2.211.023,6.3.023H48.367v4.372H0Z" fill="#fff"/>
    </g>
  </g>
</svg>
