<svg xmlns="http://www.w3.org/2000/svg" width="1089.863" height="62.961" viewBox="0 0 1089.863 62.961">
  <path id="Path_1611" data-name="Path 1611" d="M11.25-27.031H50.073l1.213-7.539H20.176V-87.258H11.25ZM94.442-87.258v60.228h8.926V-87.258Zm84.319,60.228,22.531-60.228h-9.186l-10.746,29.9c-3.12,8.666-6.326,17.592-7.539,22.7h-.173c-1.387-5.633-4.246-14.212-7.279-22.965L156.056-87.258h-9.619l21.838,60.228ZM283.184-62.3H253.46V-79.632h31.11v-7.626H244.708v60.228H285l1.127-7.539H253.46V-54.761h29.724Zm104.683,35.27h24.351c11.612,0,20.191-6.586,20.191-17.678a14.828,14.828,0,0,0-10.4-14.3c4.506-1.647,8.492-6.153,8.492-13.085,0-8.233-5.893-15.165-18.978-15.165H387.868Zm8.752-35.443V-79.979h14.472c6.673,0,10.4,3.553,10.4,8.666,0,5.546-3.207,8.839-11.439,8.839Zm0,7.279h13c9.619,0,13.605,4.16,13.605,10.4,0,7.106-12.305,10.486-12.305,10.486h-14.3ZM500.87-27.031V-48.955a2.93,2.93,0,0,1,.347-1.56l21.751-36.743h-9.532c-5.46,9.619-14.039,24.7-16.638,30.071-2.773-5.546-11.006-20.365-16.292-30.071H470.28L491.424-50.6a3.318,3.318,0,0,1,.433,1.647v21.925Zm120.455,0H642.9c17.678,0,28.857-13,28.857-30.764,0-17.852-11.439-29.464-28.511-29.464H621.325Zm8.926-52.688h12.132c14.125,0,20.018,10.572,20.018,22.1,0,13.259-6.413,23.138-20.1,23.138H630.251ZM757.206-62.3H727.482V-79.632h31.11v-7.626H718.729v60.228h40.3l1.127-7.539h-32.67V-54.761h29.724Zm44.542,18.372c1.3,9.532,8.059,17.678,23.224,17.678,14.992,0,22.358-7.626,22.358-17.592,0-7.8-3.206-14.472-20.451-18.632-10.312-2.513-13.605-4.68-13.605-10.052,0-5.459,3.986-8.493,10.919-8.493,8.579,0,11.7,4.333,12.652,9.359h9.1c-.867-8.059-6.846-16.465-21.491-16.465-13.605,0-20.365,7.279-20.365,16.552,0,8.406,4.68,13.432,19.325,16.985,11.7,2.773,14.645,5.979,14.645,11.786,0,5.459-3.553,9.532-12.479,9.532-8.406,0-13.172-3.726-14.819-10.659Zm91.6-43.329v60.228h8.926V-87.258Zm108.67,27.471H977.058v7.626h16.205v.607c0,9.272-3.12,17.938-16.119,17.938-13.259,0-18.545-11.266-18.545-23.311,0-12.825,5.113-23.831,18.8-23.831,9.619,0,14.125,4.94,16.032,11.092h8.926c-1.646-10.659-10.572-18.458-24.784-18.458-18.371,0-28.337,13.605-28.337,31.63,0,17.158,9.272,30.331,26.691,30.331,10.4,0,15.685-4.246,18.458-8.579a34.5,34.5,0,0,0,.866,7.713h6.76Zm57.454,32.757V-50c0-10.919-.087-21.491-.52-28.077h.173c3.64,6.846,22.358,38.216,30.071,51.042h10.919V-87.258h-8.319v22.445c0,9.879-.087,19.5.52,26.951h-.087c-3.293-6.5-21.145-35.357-29.55-49.4h-11.612v60.228Z" transform="translate(-10.75 88.625)" fill="#fff" stroke="rgba(0,0,0,0)" stroke-width="1"/>
</svg>
