<svg xmlns="http://www.w3.org/2000/svg" width="345.382" height="178.078" viewBox="0 0 345.382 178.078"><defs><clipPath id="a"><path fill="#fff" d="M0 0h345.382v178.078H0z"/></clipPath></defs><g fill="#fff" clip-path="url(#a)"><path d="M9.632 143.791v-.048c0-.142.1-.184.238-.19l.285-.01c2.62-.085 3.382-.8 3.382-3.419v-27.479c-2.047 0-4.048 0-6.1.048-4.429.094-5.906 1.381-7.005 6.243-.044.186-.134.247-.257.234-.153-.019-.2-.1-.172-.285a80 80 0 0 0 .815-8.526.19.19 0 0 1 .38 0c.143.81.858.952 2.572.952 3.62.048 7.477.143 11.1.143s7.477-.1 11.1-.143c1.716 0 2.43-.142 2.572-.952a.191.191 0 0 1 .381 0 80 80 0 0 0 .814 8.526c.027.19-.057.272-.172.285s-.213-.048-.255-.234c-1.1-4.862-2.577-6.149-7.007-6.243-2.047-.048-4.047-.048-6.1-.048v27.481c0 2.62.762 3.334 3.382 3.419l.285.01c.143.005.238.048.238.19v.048c0 .143-.094.191-.238.191h-10c-.142 0-.238-.048-.238-.191m53.939-.002v-.05c0-.142.1-.184.238-.19l.287-.01c2.047-.066 2.905-.895 2.905-2.942v-12.571H46.378v12.574c0 2.047.858 2.876 2.905 2.942l.285.01c.143.005.239.048.239.19v.048c0 .143-.1.191-.239.191H40.52c-.143 0-.238-.048-.238-.191v-.051c0-.142.094-.184.238-.19l.285-.01c2.049-.066 2.905-.895 2.905-2.942v-25.812c0-2.047-.856-2.876-2.905-2.942l-.285-.01c-.143 0-.238-.046-.238-.19v-.048c0-.143.094-.191.238-.191h9.049c.143 0 .239.048.239.191v.048c0 .143-.1.186-.239.19l-.285.01c-2.047.066-2.905.895-2.905 2.942v11.812h20.622v-11.812c0-2.047-.858-2.876-2.905-2.942l-.287-.01c-.142 0-.238-.046-.238-.19v-.048c0-.143.1-.191.238-.191h9.05c.142 0 .238.048.238.191v.048c0 .143-.1.186-.238.19l-.287.01c-2.047.066-2.905.895-2.905 2.942v25.815c0 2.047.858 2.876 2.905 2.942l.287.01c.142.005.238.048.238.19v.048c0 .143-.1.191-.238.191h-9.05c-.142 0-.238-.048-.238-.191m20.575.186c-.143 0-.238-.048-.238-.19v-.049c0-.142.094-.184.238-.19l.285-.008c2.049-.067 2.905-.895 2.905-2.943v-25.813c0-2.049-.856-2.877-2.905-2.943l-.285-.01c-.143 0-.238-.046-.238-.19v-.048c0-.142.094-.19.238-.19h14.717a42 42 0 0 0 5.954-.285c.238-.048.361-.005.38.238a47 47 0 0 0 1.143 7.524c.048.191-.033.285-.157.31a.223.223 0 0 1-.27-.186c-1.239-4.543-2.668-6.219-6.572-6.314-2.524-.048-4.954-.048-7.478-.048-1.381 0-1.858.477-1.858 1.858v11.94l7.145-.224c2.381-.076 3.7-.243 4.095-2.476l.191-1.1c.027-.167.094-.238.209-.238s.184.094.171.238c-.238 2.714-.285 5.858-.238 8.572 0 .143-.048.239-.172.239s-.184-.048-.209-.239l-.142-1.1c-.291-2.224-1.62-2.6-3.9-2.618l-7.151-.036v12.521c0 1.953.81 2.762 2.763 2.762 2.191 0 4.428-.046 6.619-.094 4.858-.1 6.049-2.248 7.386-6.358.057-.171.167-.224.285-.2s.19.132.138.318a47 47 0 0 0-1.475 7.143c-.04.314-.163.429-.477.429h-21.1Zm61.631-26.001a35 35 0 0 1-1.324-3.424l-.41 26.047c-.033 2.049.833 2.876 2.882 2.943l.285.01c.143 0 .238.046.238.19v.046c0 .143-.094.191-.238.191h-8.334c-.143 0-.239-.048-.239-.191v-.048c0-.143.1-.186.239-.19l.285-.01c2.047-.067 2.882-.895 2.967-2.943l1.082-25.8c.085-2.047-.8-2.872-2.849-2.928l-.285-.01c-.142 0-.238-.048-.238-.19v-.048c0-.143.1-.191.238-.191l5.487-.023a.36.36 0 0 1 .381.285c.524 1.429 1.352 3.181 2 4.619l9.34 20.747c.429.952.781 1.871 1.1 2.752.3-.871.81-1.944 1.065-2.509l9.592-20.99c.667-1.429 1.476-3.191 2-4.619a.36.36 0 0 1 .381-.285h5.372c.142 0 .238.048.238.19v.043c0 .143-.1.186-.238.19l-.285.01c-2.049.067-2.934.895-2.844 2.943l1.134 25.813c.09 2.049.918 2.876 2.967 2.943l.285.01c.143 0 .238.046.238.19v.046c0 .143-.094.191-.238.191h-9c-.143 0-.238-.048-.238-.191v-.045c0-.143.094-.186.238-.19l.285-.01c2.049-.067 2.93-.895 2.844-2.943l-.956-22.332c-.053-1.214-.105-2.39-.1-3.643l-12.849 29.642c-.128.3-.391.291-.524 0l-11.977-26.29Zm44.018 26.001c-.142 0-.236-.048-.236-.19v-.049c0-.142.094-.184.236-.19l.286-.008c2.049-.067 2.905-.895 2.905-2.943v-25.813c0-2.049-.856-2.877-2.905-2.943l-.286-.01c-.142 0-.236-.046-.236-.19v-.048c0-.142.094-.19.236-.19h14.717a42 42 0 0 0 5.954-.285c.238-.048.361-.005.38.238a47 47 0 0 0 1.143 7.524c.048.191-.031.285-.157.31a.22.22 0 0 1-.269-.186c-1.239-4.543-2.669-6.219-6.574-6.314-2.524-.048-4.954-.048-7.478-.048-1.381 0-1.858.477-1.858 1.858v11.94l7.146-.224c2.379-.076 3.7-.243 4.095-2.476l.191-1.1c.026-.167.094-.238.209-.238s.183.094.171.238c-.239 2.714-.285 5.858-.239 8.572 0 .143-.046.239-.172.239s-.183-.048-.209-.239l-.142-1.1c-.291-2.224-1.62-2.6-3.9-2.618l-7.146-.042v12.521c0 1.953.81 2.762 2.763 2.762 2.191 0 4.428-.046 6.62-.094 4.857-.1 6.049-2.248 7.385-6.358.057-.171.167-.224.285-.2s.19.132.139.318a47 47 0 0 0-1.478 7.143c-.038.314-.161.429-.474.429h-21.1Zm35.399-.187v-.048c0-.142.1-.184.238-.19l.287-.008c2.047-.067 2.905-.9 2.905-2.943v-25.815c0-2.047-.858-2.875-2.905-2.942l-.287-.01c-.142 0-.238-.046-.238-.19v-.048c0-.142.1-.19.238-.19h4.715c1.476 0 3.954-.239 6.191-.239 7.526 0 10.86 3.477 10.86 7.716 0 4.659-3.305 7.84-8.644 8.706.9.362 1.563 1.057 2.786 2.723l8 10.908a5.4 5.4 0 0 0 3.763 2.333c.142.006.238.048.238.19v.048c0 .143-.1.191-.238.191h-4.858a.61.61 0 0 1-.619-.285l-8.477-12.241c-1.953-2.857-3-3.382-5.62-3.382a12 12 0 0 0-2.239.143v12.383c0 2.047.858 2.876 2.905 2.943l.287.008c.142.005.238.048.238.19v.048c0 .143-.1.191-.238.191h-9.05c-.142 0-.238-.048-.238-.191m19-24.432c0-4.1-3.191-7-8-7a25 25 0 0 0-3.191.238c-1.43.239-1.715.477-1.715 1.763v12.524c1.143.1 2.334.1 3.43.1 5.954 0 9.478-2.762 9.478-7.62m17.982 24.428v-.05c0-.142.1-.184.238-.19l.287-.01c2.047-.066 2.905-.895 2.905-2.942v-25.812c0-2.047-.858-2.876-2.905-2.942l-.287-.01c-.142 0-.238-.046-.238-.19v-.048c0-.143.1-.191.238-.191h9.05c.142 0 .238.048.238.191v.048c0 .143-.1.186-.238.19l-.287.01c-2.047.066-2.905.895-2.905 2.942v25.815c0 2.047.858 2.876 2.905 2.942l.287.01c.142.005.238.048.238.19v.048c0 .143-.1.191-.238.191h-9.05c-.142 0-.238-.048-.238-.191m21.033-29.024c-.933-2.291-2.076-2.838-3.4-2.924l-.143-.01c-.143-.008-.238-.046-.238-.19v-.048c0-.142.094-.19.238-.19h8.526c.142 0 .238.048.238.19v.045c0 .143-.1.186-.238.19l-.285.01c-1.949.067-2.762.657-1.844 2.928l9.311 23c.343.852.661 1.639.942 2.457l9.592-25.451c.856-2.282-.034-2.872-2.143-2.938l-.285-.01c-.143 0-.239-.046-.239-.19v-.048c0-.143.1-.19.239-.19h8.1c.142 0 .238.046.238.19v.052c0 .143-.1.182-.238.19l-.143.01c-1.591.109-2.6.619-3.533 2.928l-12.04 29.733a.268.268 0 0 1-.523 0zm28.987 29.215c-.142 0-.238-.048-.238-.191v-.047c0-.142.1-.18.238-.19l.143-.008c1.6-.111 2.586-.628 3.547-2.92l12.521-29.743a.269.269 0 0 1 .525 0l12.659 29.743c.967 2.277 2.086 2.834 3.41 2.92l.142.008c.143.01.238.048.238.19v.048c0 .143-.094.191-.238.191h-8.572c-.143 0-.239-.048-.239-.191v-.048c0-.142.1-.184.239-.19l.285-.008c2.015-.067 2.877-.667 1.923-2.92l-4.566-10.787H322.07l-4.186 10.779c-.881 2.266.014 2.861 2.124 2.928l.286.008c.143.005.238.048.238.19v.048c0 .143-.094.191-.238.191Zm21.412-15.575-4.491-10.6a57 57 0 0 1-1.19-3.053l-5.3 13.654ZM194.919 69.882a6.4 6.4 0 0 0-1.069.082 1.234 1.234 0 0 0-1.027 1.233 1.37 1.37 0 0 0 1.071 1.2 3 3 0 0 0 .631.033c.178 0 .307-.011.333-.012.529-.018 3.334-.117 4.271 1.756 1.143 1.8.014 4.044-.149 4.354a4.7 4.7 0 0 1-.534.807 6 6 0 0 1-.44.505s-.186.193-.389.369a8.2 8.2 0 0 1-1.941 1.168 14.8 14.8 0 0 1-5.25.851 18 18 0 0 1-1.87-.123c-3.527-.445-10.7-3.591-13.551-9.924a21 21 0 0 1-1.147-3.443c-.112-.492-.2-.978-.28-1.519a78.4 78.4 0 0 1-.343-11.63c.008-.565.027-1.776.089-3.365.033-.835.068-1.5.1-2.155.07-1.395.165-2.736.307-4.13 0-.007.008-.13.008-.158a1.05 1.05 0 1 0-2.1 0c0 .029.008.152.008.158.143 1.395.238 2.736.307 4.13.033.654.068 1.321.1 2.155.061 1.59.081 2.8.089 3.365a78.4 78.4 0 0 1-.343 11.63 19 19 0 0 1-.28 1.519 21 21 0 0 1-1.146 3.443c-2.852 6.333-10.025 9.479-13.552 9.924a18 18 0 0 1-1.87.123 14.8 14.8 0 0 1-5.25-.851 8.2 8.2 0 0 1-1.941-1.168c-.2-.176-.389-.369-.389-.369a6 6 0 0 1-.438-.505 4.7 4.7 0 0 1-.535-.807c-.163-.31-1.291-2.55-.147-4.354.937-1.874 3.741-1.774 4.271-1.756.026 0 .156.008.332.012a3 3 0 0 0 .631-.033 1.37 1.37 0 0 0 1.071-1.2 1.234 1.234 0 0 0-1.027-1.233 6.4 6.4 0 0 0-1.069-.082c-8.573.145-7.033 9.176-1.4 12.659 8.935 5.522 20.844 1.13 23.625-8.227 2.781 9.356 14.691 13.749 23.625 8.227 5.636-3.483 7.176-12.514-1.4-12.659m-44.448-54.796a6.4 6.4 0 0 0 1.07-.086 1.234 1.234 0 0 0 1.027-1.233 1.37 1.37 0 0 0-1.071-1.2 3.2 3.2 0 0 0-.631-.033c-.178 0-.307.011-.333.012-.529.018-3.334.117-4.271-1.756-1.143-1.8-.014-4.044.149-4.354a4.7 4.7 0 0 1 .534-.807 6 6 0 0 1 .44-.505s.186-.193.388-.369a8.1 8.1 0 0 1 1.942-1.168 14.8 14.8 0 0 1 5.25-.851 18 18 0 0 1 1.87.123c3.527.445 10.7 3.591 13.551 9.924a21 21 0 0 1 1.147 3.443c.112.492.2.978.28 1.519a78.4 78.4 0 0 1 .343 11.63c-.008.565-.027 1.776-.089 3.365-.033.835-.068 1.5-.1 2.155a80 80 0 0 1-.307 4.13c0 .007-.008.13-.008.158a1.05 1.05 0 1 0 2.1 0c0-.029-.008-.152-.008-.158a78 78 0 0 1-.307-4.13c-.033-.654-.068-1.321-.1-2.155-.061-1.59-.081-2.8-.089-3.365a78.4 78.4 0 0 1 .343-11.63c.078-.541.168-1.027.28-1.519a21 21 0 0 1 1.146-3.443c2.852-6.333 10.025-9.479 13.552-9.924a18 18 0 0 1 1.87-.123 14.8 14.8 0 0 1 5.25.851 8.1 8.1 0 0 1 1.941 1.168c.2.176.389.369.389.369a6 6 0 0 1 .438.505 4.7 4.7 0 0 1 .535.807c.163.31 1.291 2.55.148 4.354-.937 1.874-3.741 1.774-4.271 1.756-.026 0-.156-.008-.332-.012a3 3 0 0 0-.631.033 1.37 1.37 0 0 0-1.071 1.2A1.234 1.234 0 0 0 193.85 15a6.4 6.4 0 0 0 1.069.082c8.573-.145 7.033-9.176 1.4-12.659-8.938-5.523-20.847-1.123-23.631 8.231C169.91 1.3 158-3.1 149.066 2.427c-5.636 3.483-7.176 12.514 1.4 12.659m49.623 5.168a6.4 6.4 0 0 0 .082 1.069 1.236 1.236 0 0 0 1.233 1.028 1.37 1.37 0 0 0 1.2-1.072 3 3 0 0 0 .033-.631c0-.178-.011-.306-.012-.333-.018-.529-.117-3.333 1.756-4.271 1.8-1.143 4.044-.014 4.354.149a4.7 4.7 0 0 1 .807.534 7 7 0 0 1 .505.44s.193.186.369.389a8.1 8.1 0 0 1 1.168 1.941 14.8 14.8 0 0 1 .851 5.25 18 18 0 0 1-.123 1.87c-.445 3.527-3.591 10.7-9.924 13.552a21 21 0 0 1-3.443 1.146c-.492.112-.978.2-1.519.28a78.4 78.4 0 0 1-11.63.343c-.565-.007-1.776-.026-3.365-.089-.835-.031-1.5-.068-2.155-.1a80 80 0 0 1-4.13-.307c-.007 0-.13-.008-.158-.008a1.05 1.05 0 1 0 0 2.1c.029 0 .152-.008.158-.008a77 77 0 0 1 4.13-.306c.654-.033 1.321-.07 2.155-.1 1.59-.061 2.8-.081 3.365-.089a78 78 0 0 1 11.63.344c.541.076 1.027.167 1.519.279a21 21 0 0 1 3.443 1.146c6.333 2.852 9.479 10.025 9.924 13.552a18 18 0 0 1 .123 1.87 14.8 14.8 0 0 1-.851 5.252 8.1 8.1 0 0 1-1.168 1.94c-.176.2-.369.389-.369.389a6 6 0 0 1-.505.438 4.7 4.7 0 0 1-.807.535c-.31.163-2.55 1.292-4.354.148-1.874-.937-1.774-3.741-1.756-4.271 0-.025.008-.156.012-.331a3 3 0 0 0-.033-.632 1.37 1.37 0 0 0-1.2-1.071 1.234 1.234 0 0 0-1.233 1.027 6.4 6.4 0 0 0-.082 1.071c.145 8.572 9.176 7.031 12.659 1.4 5.522-8.935 1.13-20.844-8.227-23.624 9.356-2.782 13.749-14.692 8.227-23.626-3.483-5.635-12.514-7.176-12.659 1.4m-54.794 44.444a6.4 6.4 0 0 0-.082-1.069 1.234 1.234 0 0 0-1.236-1.031 1.37 1.37 0 0 0-1.2 1.071 3.2 3.2 0 0 0-.033.631c0 .178.011.307.012.333.018.529.117 3.334-1.756 4.271-1.8 1.143-4.044.014-4.354-.149a4.7 4.7 0 0 1-.807-.534 6 6 0 0 1-.505-.44s-.193-.186-.369-.389a8.1 8.1 0 0 1-1.168-1.941 14.8 14.8 0 0 1-.851-5.25 18 18 0 0 1 .123-1.87c.445-3.527 3.591-10.7 9.924-13.551a21 21 0 0 1 3.443-1.147c.492-.112.978-.2 1.519-.28a78.4 78.4 0 0 1 11.63-.343c.565.008 1.776.027 3.365.089.835.033 1.5.068 2.155.1 1.394.07 2.736.165 4.13.307.007 0 .13.008.158.008a1.05 1.05 0 1 0 0-2.1c-.029 0-.152.008-.158.008a78 78 0 0 1-4.13.307c-.654.033-1.321.068-2.155.1-1.59.061-2.8.081-3.365.089a78.4 78.4 0 0 1-11.63-.343 19 19 0 0 1-1.519-.28 21 21 0 0 1-3.443-1.146c-6.333-2.852-9.479-10.025-9.924-13.552a18 18 0 0 1-.123-1.87 14.8 14.8 0 0 1 .851-5.25 8.1 8.1 0 0 1 1.168-1.941c.176-.2.369-.389.369-.389a6 6 0 0 1 .505-.438 4.7 4.7 0 0 1 .807-.535c.31-.163 2.55-1.291 4.354-.148 1.874.937 1.774 3.741 1.756 4.271 0 .026-.008.156-.012.332a3 3 0 0 0 .033.631 1.37 1.37 0 0 0 1.2 1.071 1.234 1.234 0 0 0 1.233-1.027 6.4 6.4 0 0 0 .082-1.069c-.145-8.573-9.176-7.033-12.659-1.4-5.522 8.935-1.13 20.844 8.227 23.625-9.354 2.79-13.746 14.7-8.224 23.638 3.483 5.635 12.514 7.176 12.659-1.4"/><path d="M158.806 57.366c.154-.246.314-.478.5-.731a45 45 0 0 1 4.592-4.869c.217-.21.725-.7 1.405-1.333.3-.281.556-.509.8-.729l.119-.108a45 45 0 0 1 1.806-1.554l.071-.064a.639.639 0 0 0-.9-.9c-.012.012-.06.068-.063.071a47 47 0 0 1-1.554 1.806l-.1.112c-.223.246-.452.5-.735.806a74 74 0 0 1-1.333 1.405 45 45 0 0 1-4.871 4.592 11 11 0 0 1-.729.5 12 12 0 0 1-1.862.931c-3.871 1.468-8.087-.358-9.524-1.471a10 10 0 0 1-.807-.709 8.6 8.6 0 0 1-1.784-2.472 4.7 4.7 0 0 1-.313-1.255c-.01-.152-.008-.3-.007-.306a4 4 0 0 1 .026-.381 2.7 2.7 0 0 1 .109-.54 2.65 2.65 0 0 1 1.691-1.811c.975-.325 1.933.5 2.418 1.015l.012.014c.022.023.064.07.119.127a2 2 0 0 0 .275.247.82.82 0 0 0 .971-.057.74.74 0 0 0 .087-.964 4 4 0 0 0-.406-.474c-1.314-1.27-2.692-1.6-3.88-.922-1.586.9-2.42 3.335-1.9 5.54a9.41 9.41 0 0 0 5.369 6.459 8.59 8.59 0 0 0 7.548-.115 8.59 8.59 0 0 0-.116 7.548 9.42 9.42 0 0 0 6.46 5.369 6 6 0 0 0 1.343.154 4.82 4.82 0 0 0 4.2-2.056c.676-1.188.348-2.565-.921-3.879a4 4 0 0 0-.473-.4.74.74 0 0 0-.966.087.82.82 0 0 0-.055.974 2 2 0 0 0 .246.272l.126.117.016.015c.518.484 1.339 1.441 1.012 2.419a2.64 2.64 0 0 1-1.81 1.687 3 3 0 0 1-.541.111 4 4 0 0 1-.381.026c-.005 0-.154 0-.3-.008a4.7 4.7 0 0 1-1.255-.311 8.6 8.6 0 0 1-2.488-1.792 11 11 0 0 1-.708-.809c-1.115-1.436-2.939-5.652-1.471-9.524a12 12 0 0 1 .932-1.862M186.577 27.6a12 12 0 0 1-.5.731 45 45 0 0 1-4.592 4.869 65 65 0 0 1-1.405 1.333c-.3.279-.55.5-.792.724l-.126.113a45 45 0 0 1-1.806 1.554l-.071.064a.639.639 0 0 0 .9.9c.012-.012.06-.068.063-.071.484-.594.978-1.168 1.556-1.806l.108-.119c.22-.243.448-.5.728-.8a77 77 0 0 1 1.333-1.405 45 45 0 0 1 4.871-4.592c.251-.187.484-.347.729-.5a12 12 0 0 1 1.863-.929c3.871-1.468 8.087.358 9.524 1.471a10 10 0 0 1 .807.709 8.5 8.5 0 0 1 1.784 2.472 4.7 4.7 0 0 1 .313 1.255c.01.152.008.3.007.306a4 4 0 0 1-.026.381 2.7 2.7 0 0 1-.109.54 2.65 2.65 0 0 1-1.691 1.811c-.975.325-1.933-.5-2.418-1.015l-.011-.011-.12-.13a2 2 0 0 0-.275-.247.82.82 0 0 0-.971.057.74.74 0 0 0-.087.964 4 4 0 0 0 .406.474c1.314 1.27 2.692 1.6 3.88.921 1.586-.9 2.42-3.334 1.9-5.539a9.41 9.41 0 0 0-5.369-6.459 8.59 8.59 0 0 0-7.548.115 8.59 8.59 0 0 0 .116-7.548 9.42 9.42 0 0 0-6.461-5.369c-2.2-.52-4.637.316-5.538 1.9-.676 1.19-.348 2.566.921 3.88a4 4 0 0 0 .473.4.74.74 0 0 0 .966-.087.82.82 0 0 0 .055-.972 2 2 0 0 0-.246-.273l-.126-.117-.016-.014c-.518-.485-1.339-1.441-1.012-2.42a2.65 2.65 0 0 1 1.81-1.688 3 3 0 0 1 .541-.109 4 4 0 0 1 .381-.026c.005 0 .154 0 .3.008a4.7 4.7 0 0 1 1.255.311 8.6 8.6 0 0 1 2.469 1.78 10 10 0 0 1 .708.809c1.115 1.436 2.939 5.652 1.471 9.524a12 12 0 0 1-.932 1.862m13.882 19.749c-1.188-.676-2.566-.348-3.879.922a4 4 0 0 0-.406.473.74.74 0 0 0 .089.966.82.82 0 0 0 .973.055 2 2 0 0 0 .273-.246c.053-.057.1-.1.117-.127l.014-.015c.484-.518 1.441-1.339 2.42-1.012a2.83 2.83 0 0 1 1.8 2.351q.023.19.027.381s0 .154-.008.306a4.7 4.7 0 0 1-.313 1.254 8.6 8.6 0 0 1-1.782 2.474 11 11 0 0 1-.809.708c-1.435 1.115-5.653 2.939-9.524 1.472a12 12 0 0 1-1.862-.933 11 11 0 0 1-.731-.5 45 45 0 0 1-4.871-4.591c-.209-.217-.7-.723-1.333-1.407-.284-.307-.515-.563-.738-.809l-.1-.109a45 45 0 0 1-1.556-1.806l-.063-.07a.635.635 0 0 0-.9 0 .63.63 0 0 0-.187.451.64.64 0 0 0 .186.452l.071.063c.594.484 1.168.978 1.806 1.556l.119.108c.244.22.5.448.8.728.682.63 1.19 1.123 1.407 1.334a45 45 0 0 1 4.591 4.869c.188.253.348.485.5.731a12 12 0 0 1 .933 1.862c1.467 3.871-.358 8.089-1.472 9.524a10 10 0 0 1-.708.809 8.6 8.6 0 0 1-2.474 1.782 4.7 4.7 0 0 1-1.254.313c-.15.01-.3.008-.306.008a4 4 0 0 1-.382-.027 2.83 2.83 0 0 1-2.349-1.8c-.325-.975.494-1.933 1.013-2.418l.015-.014c.025-.022.07-.063.126-.117a2 2 0 0 0 .247-.275.82.82 0 0 0-.056-.97.74.74 0 0 0-.964-.089 4 4 0 0 0-.474.407c-1.27 1.313-1.6 2.691-.922 3.879a4.82 4.82 0 0 0 4.2 2.054 5.8 5.8 0 0 0 1.343-.154 9.41 9.41 0 0 0 6.46-5.369 8.59 8.59 0 0 0-.12-7.551 8.59 8.59 0 0 0 7.548.116 9.41 9.41 0 0 0 5.369-6.46c.52-2.2-.314-4.637-1.9-5.539m-55.52-9.717c1.188.676 2.566.348 3.879-.921a4 4 0 0 0 .406-.473.74.74 0 0 0-.089-.966.82.82 0 0 0-.972-.055 2 2 0 0 0-.273.246l-.12.128-.011.014c-.484.518-1.441 1.339-2.42 1.012a2.83 2.83 0 0 1-1.8-2.351 4 4 0 0 1-.027-.381s0-.154.008-.306a4.7 4.7 0 0 1 .313-1.254 8.6 8.6 0 0 1 1.782-2.474s.389-.382.809-.708c1.435-1.115 5.653-2.939 9.524-1.471a12 12 0 0 1 1.862.932c.247.154.479.314.731.5a45 45 0 0 1 4.869 4.591c.21.217.7.723 1.334 1.407.279.3.505.552.725.795l.111.123a45 45 0 0 1 1.556 1.806l.063.071a.639.639 0 1 0 .9-.9l-.07-.063a45 45 0 0 1-1.806-1.556l-.126-.113c-.242-.219-.492-.445-.792-.723-.687-.635-1.191-1.124-1.407-1.333a45 45 0 0 1-4.591-4.871 10 10 0 0 1-.5-.731 12 12 0 0 1-.932-1.862c-1.468-3.871.356-8.089 1.471-9.524a10 10 0 0 1 .708-.807 8.5 8.5 0 0 1 2.469-1.78 4.7 4.7 0 0 1 1.254-.313c.15-.01.3-.008.306-.008a3 3 0 0 1 .382.027 2.83 2.83 0 0 1 2.349 1.8c.325.975-.494 1.933-1.014 2.418l-.015.014q-.04.035-.127.117a2 2 0 0 0-.247.275.82.82 0 0 0 .057.97.74.74 0 0 0 .964.089 4 4 0 0 0 .474-.406c1.27-1.314 1.6-2.692.922-3.88-.9-1.586-3.335-2.42-5.539-1.9a9.41 9.41 0 0 0-6.46 5.369 8.59 8.59 0 0 0 .116 7.548 8.59 8.59 0 0 0-7.548-.116 9.41 9.41 0 0 0-5.369 6.46c-.52 2.2.314 4.637 1.9 5.539M67.309 178.078a6.23 6.23 0 0 1-3.436-.962 6.5 6.5 0 0 1-2.355-2.732 10.6 10.6 0 0 1 0-8.343 6.53 6.53 0 0 1 2.355-2.736 6.2 6.2 0 0 1 3.436-.967 6.5 6.5 0 0 1 2.258.38 5.84 5.84 0 0 1 3.128 2.665 6.3 6.3 0 0 1 .694 1.975h-1.46a4.6 4.6 0 0 0-.567-1.456 4.5 4.5 0 0 0-1.008-1.157 4.6 4.6 0 0 0-1.373-.766 5 5 0 0 0-1.672-.272 4.8 4.8 0 0 0-2.628.75 5.2 5.2 0 0 0-1.893 2.2 9.32 9.32 0 0 0 0 7.119 5.2 5.2 0 0 0 1.9 2.191 4.86 4.86 0 0 0 2.618.74 5 5 0 0 0 1.672-.272 4.6 4.6 0 0 0 1.373-.766 4.4 4.4 0 0 0 1.008-1.162 4.7 4.7 0 0 0 .567-1.451h1.46a6 6 0 0 1-1.985 3.559 5.9 5.9 0 0 1-1.826 1.075 6.5 6.5 0 0 1-2.269.385m25.759.003a6.2 6.2 0 0 1-3.446-.967 6.56 6.56 0 0 1-2.356-2.73 10.6 10.6 0 0 1 0-8.338 6.54 6.54 0 0 1 2.356-2.736 6.61 6.61 0 0 1 6.883 0 6.5 6.5 0 0 1 2.351 2.736 10.68 10.68 0 0 1 0 8.343 6.5 6.5 0 0 1-2.351 2.732 6.23 6.23 0 0 1-3.436.962m0-1.369a4.76 4.76 0 0 0 2.67-.77 5.26 5.26 0 0 0 1.862-2.228 9.3 9.3 0 0 0 0-7 5.26 5.26 0 0 0-1.862-2.233 5.03 5.03 0 0 0-5.355 0 5.24 5.24 0 0 0-1.867 2.233 9.3 9.3 0 0 0 0 6.99 5.3 5.3 0 0 0 1.867 2.232 4.8 4.8 0 0 0 2.685.776m20.543 1.162v-15.329h1.471v14.023h7.284v1.306Zm22.166 0v-15.329h1.471v14.023h7.284v1.306Zm22.168 0v-15.329h8.95v1.307h-7.487v5.659h7.016v1.306h-7.016v5.752h7.634v1.306Zm28.661.205a6.23 6.23 0 0 1-3.436-.962 6.5 6.5 0 0 1-2.355-2.732 10.6 10.6 0 0 1 0-8.343 6.53 6.53 0 0 1 2.355-2.736 6.2 6.2 0 0 1 3.436-.967 6.5 6.5 0 0 1 2.258.38 5.84 5.84 0 0 1 3.128 2.665 6.3 6.3 0 0 1 .694 1.975h-1.46a4.6 4.6 0 0 0-.567-1.456 4.5 4.5 0 0 0-1.008-1.157 4.6 4.6 0 0 0-1.373-.766 5 5 0 0 0-1.672-.272 4.8 4.8 0 0 0-2.628.75 5.2 5.2 0 0 0-1.893 2.2 9.32 9.32 0 0 0 0 7.119 5.2 5.2 0 0 0 1.9 2.191 4.86 4.86 0 0 0 2.618.74 5 5 0 0 0 1.672-.272 4.6 4.6 0 0 0 1.373-.766 4.4 4.4 0 0 0 1.008-1.162 4.7 4.7 0 0 0 .567-1.451h1.46a6 6 0 0 1-1.985 3.559 5.9 5.9 0 0 1-1.826 1.075 6.5 6.5 0 0 1-2.269.385m18.339-14.224v-1.307h11.171v1.307h-4.845v14.022h-1.46v-14.022Zm24.592-1.307h1.46v15.329h-1.46zm22.022 15.534a6.2 6.2 0 0 1-3.446-.967 6.56 6.56 0 0 1-2.356-2.73 10.6 10.6 0 0 1 0-8.338 6.54 6.54 0 0 1 2.356-2.736 6.61 6.61 0 0 1 6.883 0 6.5 6.5 0 0 1 2.351 2.736 10.68 10.68 0 0 1 0 8.343 6.5 6.5 0 0 1-2.351 2.732 6.23 6.23 0 0 1-3.436.962m0-1.369a4.76 4.76 0 0 0 2.67-.77 5.26 5.26 0 0 0 1.862-2.228 9.3 9.3 0 0 0 0-7 5.26 5.26 0 0 0-1.862-2.233 5.03 5.03 0 0 0-5.355 0 5.24 5.24 0 0 0-1.867 2.233 9.3 9.3 0 0 0 0 6.99 5.3 5.3 0 0 0 1.867 2.232 4.8 4.8 0 0 0 2.685.776m20.543 1.162v-15.329h1.685l6.985 10.411q.289.432.649 1.009t.755 1.255q.396.679.788 1.43h-.238a45 45 0 0 1-.134-2.835q-.01-.636-.01-1.126v-10.144h1.46v15.329h-1.7l-6.521-9.691q-.381-.576-.766-1.183t-.839-1.374q-.453-.766-1.071-1.8h.288q.031.936.061 1.759.032.822.052 1.481c.02.659.021.81.021 1.11v9.7Z"/></g></svg>