<svg xmlns="http://www.w3.org/2000/svg" xmlns:xlink="http://www.w3.org/1999/xlink" width="599.473" height="309.709" viewBox="0 0 599.473 309.709">
  <defs>
    <clipPath id="clip-path">
      <rect id="Rectangle_26" data-name="Rectangle 26" width="599.473" height="309.709" fill="#fff"/>
    </clipPath>
  </defs>
  <g id="Group_9969" data-name="Group 9969" transform="translate(0)">
    <g id="Group_10189" data-name="Group 10189" transform="translate(0)" clip-path="url(#clip-path)">
      <path id="Path_2173" data-name="Path 2173" d="M330.125,197.6a17.648,17.648,0,0,0-8.145-1.748H302.22v48.468h6.943V224.492h12.818a17.611,17.611,0,0,0,8.145-1.781,12.457,12.457,0,0,0,5.308-5.042,15.162,15.162,0,0,0,1.836-7.562,14.764,14.764,0,0,0-1.869-7.529,12.618,12.618,0,0,0-5.275-4.974m-1.068,16.873a7.127,7.127,0,0,1-3.071,2.891,10.591,10.591,0,0,1-4.807,1.009H309.162v-16.4h12.017a9.25,9.25,0,0,1,6.577,2.218,7.722,7.722,0,0,1,2.369,5.915,8.718,8.718,0,0,1-1.068,4.37" transform="translate(-8.032 -3.878)" fill="#fff"/>
      <path id="Path_2174" data-name="Path 2174" d="M378.218,198.363a25.1,25.1,0,0,0-24.5,0,22.455,22.455,0,0,0-8.513,8.874,28.383,28.383,0,0,0,0,25.679,22.436,22.436,0,0,0,8.513,8.874,25.1,25.1,0,0,0,24.5,0,22.447,22.447,0,0,0,8.512-8.874,28.373,28.373,0,0,0,0-25.679,22.466,22.466,0,0,0-8.512-8.874m2.3,31.326a16.726,16.726,0,0,1-5.941,6.723,16.341,16.341,0,0,1-17.224,0,16.708,16.708,0,0,1-5.943-6.723,22.7,22.7,0,0,1,0-19.226,16.722,16.722,0,0,1,5.943-6.723,16.341,16.341,0,0,1,17.224,0,16.74,16.74,0,0,1,5.941,6.723,22.692,22.692,0,0,1,0,19.226" transform="translate(-9.092 -3.865)" fill="#fff"/>
      <path id="Path_2175" data-name="Path 2175" d="M430.794,230.88a18.435,18.435,0,0,0-2.27-5.547,8.5,8.5,0,0,0-3.938-3.058,13.612,13.612,0,0,0,5.942-4.84,13.008,13.008,0,0,0,2.137-7.462,14.919,14.919,0,0,0-1.836-7.562,11.983,11.983,0,0,0-5.308-4.874,18.667,18.667,0,0,0-8.211-1.68H397.548v48.467h6.943v-20.3h7.41a18.518,18.518,0,0,1,6.21.874,8.22,8.22,0,0,1,3.8,2.689,12.785,12.785,0,0,1,2.137,4.773l2.736,11.964h7.478v-.269Zm-9.446-13.916a11.441,11.441,0,0,1-4.84.941H404.491V201.973h12.017a9.656,9.656,0,0,1,6.608,2.117,7.428,7.428,0,0,1,2.4,5.882,8.161,8.161,0,0,1-1.068,4.269,6.865,6.865,0,0,1-3.1,2.723" transform="translate(-10.565 -3.878)" fill="#fff"/>
      <path id="Path_2176" data-name="Path 2176" d="M438.354,201.973h15.088v42.351h7.009V201.973h15.088v-6.117H438.354Z" transform="translate(-11.649 -3.878)" fill="#fff"/>
      <path id="Path_2177" data-name="Path 2177" d="M502.366,217.085l-8.813-2.554a11.214,11.214,0,0,1-4.706-2.42,5.459,5.459,0,0,1-1.637-4.168,5.834,5.834,0,0,1,1.1-3.529,6.883,6.883,0,0,1,3.17-2.319,13.6,13.6,0,0,1,4.941-.807,11.039,11.039,0,0,1,6.977,2.151,9.08,9.08,0,0,1,3.437,5.647h.268l6.343-1.479a11.99,11.99,0,0,0-2.739-6.454,15.616,15.616,0,0,0-6.075-4.4,20.912,20.912,0,0,0-8.211-1.58,20.635,20.635,0,0,0-8.411,1.649,13.771,13.771,0,0,0-5.841,4.6,11.526,11.526,0,0,0-2.1,6.858q0,5.377,3.1,8.369a19.941,19.941,0,0,0,8.579,4.536l8.612,2.555a11.013,11.013,0,0,1,4.907,2.79,6.579,6.579,0,0,1,1.769,4.739,6.448,6.448,0,0,1-1.267,3.933,8.361,8.361,0,0,1-3.606,2.689,13.961,13.961,0,0,1-5.407.974,12.439,12.439,0,0,1-5.675-1.311,11.223,11.223,0,0,1-4.24-3.664,10.753,10.753,0,0,1-1.9-5.243h-.267l-6.476,1.479a14.07,14.07,0,0,0,2.9,7.6,17.833,17.833,0,0,0,6.709,5.311,20.747,20.747,0,0,0,8.947,1.95,22.358,22.358,0,0,0,9.145-1.749,14.065,14.065,0,0,0,6.109-4.94,12.786,12.786,0,0,0,2.17-7.361q0-5.915-3.138-9.076a19.764,19.764,0,0,0-8.678-4.773" transform="translate(-12.708 -3.865)" fill="#fff"/>
      <rect id="Rectangle_25" data-name="Rectangle 25" width="6.943" height="48.468" transform="translate(508.483 191.978)" fill="#fff"/>
      <path id="Path_2178" data-name="Path 2178" d="M564.514,198.982a24.149,24.149,0,0,0-12.25-3.126H537.109v48.468h15.154a24.149,24.149,0,0,0,12.25-3.125,22.3,22.3,0,0,0,8.512-8.639,26.851,26.851,0,0,0,0-24.939,22.314,22.314,0,0,0-8.512-8.638m2.3,30.385a16.058,16.058,0,0,1-14.554,8.839h-8.211V201.973h8.211a16.057,16.057,0,0,1,14.554,8.84,21.206,21.206,0,0,1,0,18.553" transform="translate(-14.274 -3.878)" fill="#fff"/>
      <path id="Path_2179" data-name="Path 2179" d="M614.977,201.973v-6.117H583.4v48.469h31.576v-6.117H590.343V221.8H610.1v-6.185h-19.76V201.973Z" transform="translate(-15.504 -3.878)" fill="#fff"/>
      <path id="Path_2180" data-name="Path 2180" d="M308.784,300.387a17.184,17.184,0,0,1-6.442-4.875,14.072,14.072,0,0,1-3.071-7.158l3.137-1.681h.268a12.7,12.7,0,0,0,2.336,6.353,13.517,13.517,0,0,0,5.208,4.335,15.741,15.741,0,0,0,6.942,1.547,17.774,17.774,0,0,0,6.91-1.244,10.448,10.448,0,0,0,4.573-3.462,8.5,8.5,0,0,0,1.6-5.108,8.771,8.771,0,0,0-2.169-6.185,13.5,13.5,0,0,0-6.042-3.563l-10.082-3.026a18.6,18.6,0,0,1-7.843-4.233,10.189,10.189,0,0,1-2.838-7.664,10.674,10.674,0,0,1,1.936-6.354,12.559,12.559,0,0,1,5.508-4.234,20.986,20.986,0,0,1,8.244-1.512,19.485,19.485,0,0,1,7.678,1.446,14.146,14.146,0,0,1,5.507,4,12.592,12.592,0,0,1,2.7,5.781l-3,1.613h-.268a10.854,10.854,0,0,0-4.139-7.093,13.678,13.678,0,0,0-8.478-2.521,17.379,17.379,0,0,0-6.441,1.077,8.772,8.772,0,0,0-4.107,3.091,8.037,8.037,0,0,0-1.4,4.706,7,7,0,0,0,2.036,5.311,14.261,14.261,0,0,0,5.908,3.092l10.281,3.093a16.781,16.781,0,0,1,7.878,4.638q2.869,3.161,2.871,8.6a11.519,11.519,0,0,1-2.07,6.823,13.382,13.382,0,0,1-5.876,4.537,22.611,22.611,0,0,1-8.879,1.613,20.264,20.264,0,0,1-8.378-1.748" transform="translate(-7.953 -4.997)" fill="#fff"/>
      <path id="Path_2181" data-name="Path 2181" d="M382.549,264.389a22.132,22.132,0,0,0-8.244-8.874,23.645,23.645,0,0,0-23.733,0,22.181,22.181,0,0,0-8.212,8.874,29.23,29.23,0,0,0,0,25.679,22.172,22.172,0,0,0,8.212,8.873,21.2,21.2,0,0,0,2.244,1.179L372.3,314.706l2-2.824-14.187-9.861c.754.068,1.519.114,2.3.114a22.487,22.487,0,0,0,11.884-3.193,22.124,22.124,0,0,0,8.244-8.873,29.228,29.228,0,0,0,0-25.679m-3.237,24a18.876,18.876,0,0,1-6.909,7.731,19.189,19.189,0,0,1-19.928,0,18.945,18.945,0,0,1-6.876-7.731,26.437,26.437,0,0,1,0-22.318,18.957,18.957,0,0,1,6.876-7.731,19.189,19.189,0,0,1,19.928,0,18.888,18.888,0,0,1,6.909,7.731,26.436,26.436,0,0,1,0,22.318" transform="translate(-9.019 -4.997)" fill="#fff"/>
      <path id="Path_2182" data-name="Path 2182" d="M402.088,300.064a14.706,14.706,0,0,1-6.109-5.849,17.125,17.125,0,0,1-2.135-8.6v-32.6h3.6v33.208a12.732,12.732,0,0,0,1.7,6.588,11.642,11.642,0,0,0,4.84,4.5,15.852,15.852,0,0,0,7.342,1.613,16.065,16.065,0,0,0,7.378-1.613,11.616,11.616,0,0,0,4.873-4.5,12.723,12.723,0,0,0,1.7-6.588V253.008h3.6v32.6a16.914,16.914,0,0,1-2.17,8.6,14.915,14.915,0,0,1-6.141,5.849,21.554,21.554,0,0,1-18.492,0" transform="translate(-10.467 -5.01)" fill="#fff"/>
      <path id="Path_2183" data-name="Path 2183" d="M455.762,253.007h-3.471L434.4,297.174l-1.6,4.034v.269H436.4l.133-.269,1.6-4.034,3.9-9.681h23.78l5.435,13.715.133.269h4.007v-.269Zm-12.428,31.259,10.692-26.553,10.512,26.553Z" transform="translate(-11.502 -5.01)" fill="#fff"/>
      <path id="Path_2184" data-name="Path 2184" d="M483,253.008h18.225a18.83,18.83,0,0,1,8.045,1.58,11.369,11.369,0,0,1,5.141,4.6,14.149,14.149,0,0,1,1.769,7.26,13.114,13.114,0,0,1-2.3,7.933,12.159,12.159,0,0,1-6.709,4.436,8.5,8.5,0,0,1,4.372,3.058,18.719,18.719,0,0,1,2.437,6.152l2.2,9.142,1,4.033v.269h-3.605l-3-12.571a15.063,15.063,0,0,0-2.236-5.276,8.323,8.323,0,0,0-4.04-2.925,21.187,21.187,0,0,0-7.01-.941H486.6v21.713H483Zm24.266,22.318a8.776,8.776,0,0,0,3.839-3.462,10.424,10.424,0,0,0,1.335-5.412,9.666,9.666,0,0,0-2.97-7.5q-2.973-2.723-8.179-2.723H486.6v20.3H501.29a13.61,13.61,0,0,0,5.975-1.209" transform="translate(-12.836 -5.01)" fill="#fff"/>
      <path id="Path_2185" data-name="Path 2185" d="M555.021,256.234v-3.226H525.313v48.467h29.708v-3.226h-26.1V277.208h20.9v-3.228h-20.9V256.234Z" transform="translate(-13.96 -5.01)" fill="#fff"/>
      <g id="Group_10488" data-name="Group 10488">
        <path id="Path_2187" data-name="Path 2187" d="M309.512,154.42,156.157,0,137.121,287.5l-.029.451L157,308.015Zm-11.441,0-125.5,126.351,83.66-168.478ZM200.553,56.227l-46.131,92.525,8.626-130.291Zm-55.14,228.581,7.5-113.259L207.126,62.843l45.52,45.838L161.807,291.612l-4.817,4.852Z" transform="translate(-3.644)" fill="#fff"/>
        <path id="Path_2186" data-name="Path 2186" d="M136.656,75.132a465.848,465.848,0,0,0-3.034-53.438l-.237-2.045L0,153.962l95.571,96.256.661-1.052c25.313-40.2,40.424-105.256,40.424-174.035M11.367,153.962l115.717-116.5c1.008,12.4,1.519,25.063,1.519,37.671,0,62.419-12.932,122.843-34.635,162.025Z" transform="translate(0 -0.389)" fill="#fff"/>
      </g>
    </g>
  </g>
</svg>
