<svg xmlns="http://www.w3.org/2000/svg" xmlns:xlink="http://www.w3.org/1999/xlink" width="488.462" height="216.062" viewBox="0 0 488.462 216.062">
  <defs>
    <clipPath id="clip-path">
      <rect id="Rectangle_171" data-name="Rectangle 171" width="488.462" height="216.062" fill="#fff"/>
    </clipPath>
  </defs>
  <g id="Group_10179" data-name="Group 10179" clip-path="url(#clip-path)">
    <path id="Path_2030" data-name="Path 2030" d="M274.752,0,256.179,54.381l-4.351,12.74-28.8,84.337-14.346,42a4.115,4.115,0,0,1-3.608,2.835c-2.27,0-4.111-2.415-4.111-5.393V0H127.7L109.122,54.381l-4.351,12.74-28.8,84.337-14.345,42a4.115,4.115,0,0,1-3.61,2.835c-2.27,0-4.11-2.415-4.11-5.393V0H0V216.062H90.642l18.481-54.18L156.7,22.408a4.048,4.048,0,0,1,3.532-2.642c2.27,0,4.11,2.413,4.11,5.393v190.9H217.37L291.073,0Z" fill="#fff"/>
    <path id="Path_2031" data-name="Path 2031" d="M183.562,82.094h6.82l4.285,16.36c.646,2.811,1.428,7.189,1.428,7.189h.093s.829-4.1,1.52-7L201.3,82.094h6.453l3.595,16.5c.691,2.9,1.521,7.051,1.521,7.051h.091s.966-4.378,1.613-7.235l4.148-16.315h6.59l-9.4,32.951h-6.223l-4.008-17.65c-.553-2.4-1.152-5.854-1.152-5.854h-.093s-.508,3.457-1.059,5.854l-4.057,17.65h-6.174Z" transform="translate(96.267 43.053)" fill="#fff"/>
    <rect id="Rectangle_170" data-name="Rectangle 170" width="6.682" height="32.951" transform="translate(324.394 125.147)" fill="#fff"/>
    <path id="Path_2032" data-name="Path 2032" d="M220.536,82.094h6.773l10.968,18.388c1.061,1.8,2.3,4.608,2.3,4.608h.093s-.184-3.41-.184-5.714V82.094h6.59v32.951h-6.453l-11.244-18.2c-1.059-1.752-2.351-4.563-2.351-4.563h-.093s.184,3.457.184,5.761v17.005h-6.589Z" transform="translate(115.657 43.053)" fill="#fff"/>
    <path id="Path_2033" data-name="Path 2033" d="M241.274,82.094h12.857c8.8,0,14.472,7.1,14.472,16.821,0,5.346-1.8,10.046-5.253,12.95a14.722,14.722,0,0,1-9.772,3.18h-12.3Zm11.843,27.19c6.268,0,8.711-3.825,8.711-10.369s-2.857-11.107-8.526-11.107h-5.345v21.476Z" transform="translate(126.533 43.053)" fill="#fff"/>
    <path id="Path_2034" data-name="Path 2034" d="M260.623,105.066h6.544c.46,3.964,2.718,5.531,7.418,5.531,3.41,0,6.406-1.2,6.406-4.239,0-3.227-3.133-3.872-8.156-5.023-5.9-1.337-11.292-2.9-11.292-9.772,0-6.5,5.3-9.862,12.628-9.862,7.419,0,12.211,3.64,12.718,10.278h-6.406c-.367-3.319-2.95-4.977-6.36-4.977-3.595,0-5.945,1.52-5.945,3.871,0,2.672,2.3,3.456,7.191,4.515,6.773,1.476,12.3,3.089,12.3,10.186,0,6.682-5.392,10.415-12.811,10.415-8.941,0-14.01-3.964-14.24-10.923" transform="translate(136.681 42.847)" fill="#fff"/>
    <path id="Path_2035" data-name="Path 2035" d="M280.062,98.861c0-9.862,6.177-17.19,15.9-17.19S311.815,89,311.815,98.861,305.686,116,295.962,116s-15.9-7.281-15.9-17.144m24.932,0c0-6.59-2.95-11.706-8.987-11.706s-9.124,5.116-9.124,11.706c0,6.544,3.087,11.66,9.124,11.66s8.987-5.116,8.987-11.66" transform="translate(146.875 42.831)" fill="#fff"/>
    <path id="Path_2036" data-name="Path 2036" d="M303.281,82.094H318.4c6.358,0,10.6,3.688,10.6,9.171,0,3.872-1.8,6.82-6.04,7.973v.139c3.043.875,4.61,2.627,5.025,6.636.46,4.654.276,8.2,1.428,8.711v.322H323c-.829-.367-.921-4.055-1.2-7.6-.276-3.595-2.3-5.622-6.451-5.622h-5.392v13.226h-6.682Zm6.682,14.563h7.1c3.64,0,5.438-1.89,5.438-4.515,0-2.674-1.7-4.656-5.253-4.656h-7.281Z" transform="translate(159.052 43.053)" fill="#fff"/>
    <path id="Path_2037" data-name="Path 2037" d="M185.073,118.373h6.682v12.9h12.95v-12.9h6.682v32.951h-6.682V136.806h-12.95v14.517h-6.682Z" transform="translate(97.059 62.079)" fill="#fff"/>
    <path id="Path_2038" data-name="Path 2038" d="M204.723,135.139c0-9.862,6.177-17.19,15.9-17.19s15.853,7.328,15.853,17.19-6.128,17.144-15.853,17.144-15.9-7.281-15.9-17.144m24.932,0c0-6.59-2.95-11.706-8.987-11.706s-9.124,5.116-9.124,11.706c0,6.544,3.087,11.66,9.124,11.66s8.987-5.116,8.987-11.66" transform="translate(107.365 61.857)" fill="#fff"/>
    <path id="Path_2039" data-name="Path 2039" d="M227.76,140.723V118.372h6.682v22.351c0,3.41,1.706,5.808,6.177,5.808,4.239,0,6.221-2.489,6.221-5.9v-22.26h6.682v22.351c0,7.051-4.332,11.153-12.766,11.153-8.525,0-13-4.009-13-11.153" transform="translate(119.446 62.079)" fill="#fff"/>
    <path id="Path_2040" data-name="Path 2040" d="M246.989,141.344h6.544c.46,3.964,2.718,5.531,7.418,5.531,3.41,0,6.406-1.2,6.406-4.239,0-3.227-3.133-3.872-8.156-5.023-5.9-1.337-11.292-2.9-11.292-9.772,0-6.5,5.3-9.862,12.628-9.862,7.419,0,12.211,3.64,12.718,10.278h-6.406c-.367-3.319-2.95-4.977-6.36-4.977-3.595,0-5.945,1.52-5.945,3.871,0,2.672,2.3,3.456,7.191,4.515,6.773,1.476,12.3,3.089,12.3,10.186,0,6.682-5.392,10.415-12.811,10.415-8.941,0-14.01-3.964-14.24-10.923" transform="translate(129.53 61.873)" fill="#fff"/>
    <path id="Path_2041" data-name="Path 2041" d="M267.365,118.373h24.24v5.622H274.047v7.374h15.392v5.485H274.047v8.894h17.7v5.576H267.365Z" transform="translate(140.216 62.079)" fill="#fff"/>
  </g>
</svg>
